<svg xmlns="http://www.w3.org/2000/svg" xmlns:xlink="http://www.w3.org/1999/xlink" viewBox="0 0 659.49 688.37"><defs><style>.cls-1{fill:url(#linear-gradient);}.cls-2{fill:url(#linear-gradient-2);}.cls-3{fill:url(#linear-gradient-3);}</style><linearGradient id="linear-gradient" y1="534.41" x2="273.45" y2="534.41" gradientUnits="userSpaceOnUse"><stop offset="0" stop-color="#7ac943"/><stop offset="1" stop-color="#0071bc"/></linearGradient><linearGradient id="linear-gradient-2" x1="130.53" y1="160.76" x2="498.07" y2="160.76" xlink:href="#linear-gradient"/><linearGradient id="linear-gradient-3" x1="349.28" y1="533.26" x2="659.49" y2="533.26" xlink:href="#linear-gradient"/></defs><g id="Layer_2" data-name="Layer 2"><g id="Layer_1-2" data-name="Layer 1"><path class="cls-1" d="M236.68,397.69H36.77A36.76,36.76,0,0,0,0,434.45V634.37a36.76,36.76,0,0,0,36.77,36.76H236.68a36.76,36.76,0,0,0,36.77-36.76V434.45A36.76,36.76,0,0,0,236.68,397.69ZM218.3,617.13a9.19,9.19,0,0,1-9.19,9.19H64.34a9.18,9.18,0,0,1-9.19-9.19V457.43a9.18,9.18,0,0,1,9.19-9.19H209.11a9.19,9.19,0,0,1,9.19,9.19Z"/><path class="cls-2" d="M496.34,287.39c-8.75-35.48-147.55-255.21-162-278A24.84,24.84,0,0,0,310.6.41C299,2.59,293.83,12.5,293.23,13.69L132.89,287a24.49,24.49,0,0,0,2.3,24.9c6.74,9,17.39,9.53,18.77,9.57h319.4c.9.08,13.07.92,20.68-8.81C500.6,304.29,497.45,291.87,496.34,287.39Zm-297.6-17.24L316,72.54,430.85,270.15Z"/><path class="cls-3" d="M504.38,378.15h0a155.11,155.11,0,0,0-155.1,155.11h0a155.11,155.11,0,0,0,155.1,155.11h0A155.11,155.11,0,0,0,659.49,533.26h0A155.11,155.11,0,0,0,504.38,378.15Zm96.84,155.11a96.84,96.84,0,0,1-96.84,96.84h0a96.84,96.84,0,0,1-96.83-96.84h0a96.84,96.84,0,0,1,96.83-96.84h0a96.84,96.84,0,0,1,96.84,96.84Z"/></g></g></svg>