<svg xmlns="http://www.w3.org/2000/svg" xmlns:xlink="http://www.w3.org/1999/xlink" viewBox="0 0 727.9 415.84"><defs><style>.cls-1{fill:url(#radial-gradient);}</style><radialGradient id="radial-gradient" cx="387.26" cy="195.03" fx="377.6560635865748" fy="89.85777676827931" r="302.53" gradientUnits="userSpaceOnUse"><stop offset="0" stop-color="#fff" stop-opacity="0.1"/><stop offset="0.2" stop-color="#b1aec0" stop-opacity="0.39"/><stop offset="0.71" stop-color="#0b003a"/></radialGradient></defs><g id="Layer_2" data-name="Layer 2"><g id="Layer_1-2" data-name="Layer 1"><path class="cls-1" d="M178.41,0c4-.27,7.49,4.13,7.23,5a3.22,3.22,0,0,1-2.46,1.5c-1.36.21-1.88.79-1.54,1.7a3.66,3.66,0,0,1-1.1,3.11c-2,2.13-2.42,4-.9,3.72.62-.13,1.26.68,1.42,1.8.22,1.46-.58,2.6-2.86,4.06-3.62,2.31-5.4,2.59-4.72.73.35-.93-.42-1.26-2.8-1.18-1.79,0-3.26.41-3.26.82s-2,.48-4.56.13c-3.48-.48-4.92-.27-6,.83-1.25,1.3-1.05,1.62,1.84,3s3.55,1.49,7.87,0c3.77-1.3,5.12-1.38,7.28-.45,3.08,1.32,4.2,3.5,2.7,5.36A4.17,4.17,0,0,0,176,33.3c.26,1,0,2.05-.67,2.3-1.49.6-18.9.54-21.26-.07h0c-3.19-.81-4.14-2.27-4.16-6.34,0-6.44-.8-8.31-3.21-7.68-1.6.41-2.56-.13-4-2.31-2.93-4.25-2.58-5.88,1.26-5.88,2.21,0,3.59.59,4.36,1.88a2.58,2.58,0,0,0,3.07,1.36,3.11,3.11,0,0,1,3.18,1c1.12,1.38,1.38,1.25,2.44-1.36.66-1.6,1.79-2.92,2.55-2.92,1.2,0,1.22-.34.06-2.64a15.86,15.86,0,0,1-1.33-3.22c0-.34,2-4.06,4.55-4.91,2.87-1,8.95-1.33,13.92-2.12A5.23,5.23,0,0,1,178.41,0ZM109,2.16c4-.06,6.7,2,6.14,2.2s-.81,1.48-.58,2.77c.35,1.86-.08,2.52-2,3.3-3.15,1.24-3,1.28-4.39-.75a7.39,7.39,0,0,0-2.81-2.36,2.45,2.45,0,0,1-1.6-1.92c0-1,1.29-3.18,5.29-3.24Zm24.17.53c4.34-.21,5.84,2.11,3.52,3.63-1.9,1.24-6.11,1.13-7.18-.19-1.26-1.58-.67-3.22,3.66-3.44Zm9,.05c3.33,0,4.11,1.32,3.69,2.45-.36.95,0,1.44,1.12,1.44,2.16,0,2.88.81,2.27,2.48-.68,1.84-4.06,1.64-6.3-.37a29.5,29.5,0,0,1-3.11-3.31C138.68,3.91,138.84,2.74,142.17,2.74Zm231,1c3.73,0,6.53.4,6.53.95a1,1,0,0,1-.93,1c-.51,0-.91.62-.91,1.39a43.15,43.15,0,0,1-1.58,6.69c-1.68,5.62-3.56,6.81-4.51,2.88-.32-1.31-1.11-2.37-1.76-2.37-1.51,0-2.55-4-1.24-4.86.61-.39.64-.78.08-1a4.32,4.32,0,0,1-1.55-2.48c-.63-2.08-.47-2.16,5.87-2.16Zm12.34,0a7.53,7.53,0,0,1,4.54,1.89l2,1.9L389.86,10c-2.08,2.29-5.34,3.44-4.16,1.44.32-.52-.21-.94-1.17-.94-1.39,0-1.72-.69-1.67-3.34.06-3,.34-3.35,2.65-3.35Zm161.31,0c1,0,1.64.43,1.32.95C547.4,6,544.9,6,544.9,4.72c0-.52.87-1,1.92-1ZM122.33,6.17c.8-.81,3.54,2.3,3.76,4.27.4,3.6-1.79,3.25-3-.47-.61-1.89-1-3.61-.78-3.79Zm432,1c2.47-.37,5.59,2,5,4.31-.3,1.18,0,1.83.85,1.83a2.22,2.22,0,0,1,1.87,1.44c.32.89,1.78,1.45,3.9,1.46,5.06.05,8.61,3.7,9.14,9.42.44,4.69-.08,5.55-6.88,11.56-1.52,1.34-1.52,1.44.2,1.77A4.42,4.42,0,0,1,571,40.41c.49.77,1,.67,1.62-.34.78-1.2,1-1.1,1.47.65s.93,1.93,2.66,1.25c2.85-1.12,9.74.71,9.1,2.43-.32.85.61,1.48,2.79,1.9,4,.77,5.2.07,5.2-2.9s1.31-3.68,4.55-1.94a12.55,12.55,0,0,0,4.5,1.46c3.38,0,4.88,3.08,4.63,9.52-.19,5,.08,6.19,1.59,7.33,1.67,1.27,1.86,1.12,2.58-1.78,1-4.27,2.1-5.15,3.32-2.79.8,1.56,1.6,1.87,3.66,1.44,1.56-.32,2.92-.09,3.31.56.49.83,1.07.74,2.19-.31a4,4,0,0,1,2.44-1.25c.5.1,1-.57,1.2-1.49s-.12-1.69-.67-1.69-1-.64-1-1.42a1.62,1.62,0,0,1,1.76-1.43A2.24,2.24,0,0,0,630,48.53c.54-1.67,18.1,2.8,19.18,4.9.48.91.63,1.91.33,2.21s.55.84,1.88,1.18c2.14.55,2.79,1.41,2.58,3.38,0,.31,3,.38,6.67.13,6.27-.41,6.86-.3,8.26,1.79a9.24,9.24,0,0,1,1.52,4.32c0,2.48,1.68,3.31,3.84,1.92,1.08-.68,2.63-.64,5.1.15,3.22,1,3.65,1,5-.91.93-1.28,2-1.84,3-1.47,1.76.71,2,3.18.36,3.81-.86.33-.76.86.37,2.1,1.71,1.86,4.24,1.08,2.71-.84a4.35,4.35,0,0,1-.4-3.32c.46-1.83.94-2.08,3-1.47a30.39,30.39,0,0,0,6.11.88c4.41.16,6.8,1.36,12.92,6.56,2.54,2.15,5.16,4.35,5.83,4.87s2,1.72,3,2.66a10.72,10.72,0,0,0,4.49,2.26,6.63,6.63,0,0,1,2.12,1v8.75a7.5,7.5,0,0,0-.51,3.7c0,.64-.73,1.41-1.68,1.72-1.93.64-7.29-3-7.29-5,0-.8-1.13-1.24-3-1.2-2.19,0-3.58.8-5.15,2.85-1.92,2.52-2,3.17-1.06,6.2,1.4,4.39.62,6.52-2.1,5.82a6.65,6.65,0,0,0-4.38.81c-1.26.74-2.93,1.68-3.69,2.06a31.36,31.36,0,0,0-4.93,4.39c-3.35,3.47-3.67,3.62-5.24,2.14-1.3-1.21-2.09-1.34-3.52-.55a5.82,5.82,0,0,0-2.31,2.22c-.36.92-.71.86-1.45-.23s-1-1-1-.24-.84,1.21-1.85,1.21-1.87.41-1.87.92.64.68,1.39.37c2.12-.84,1.7,2.27-.46,3.47-1.38.76-1.84.72-1.84-.12,0-.63-.27-.87-.6-.53s-.2,1.16.28,1.82c1.15,1.62,1,8.37-.14,8.33-.51,0-1.14,1.38-1.39,3.11-.29,1.95-1,3.15-1.84,3.15s-1.5,1-1.68,2.62-.85,2.64-1.64,2.64-1.76,1.16-2.28,2.61c-1.18,3.3-6.65,8.51-7.18,6.84a2.56,2.56,0,0,1,1.18-2.37c1.38-1,1.44-1.87.58-6.7-1.42-7.93-1.27-14.26.39-15.68a4,4,0,0,0,1.41-1.92c0-.4,1.33-2.2,3-4,9-9.82,11-12.2,9.86-12.2-.67,0-2.35,1.1-3.72,2.47-2.45,2.43-2.51,2.44-3.11.48a4.46,4.46,0,0,1,0-2.95c.32-.53,0-1-.64-1.07-2.41-.22-4,.31-4.7,1.63a31,31,0,0,1-3.08,4c-1.28,1.43-1.89,2.75-1.35,2.94,1.84.64,1,3-1.08,3.12a44.32,44.32,0,0,0-4.6.51c-1.91.32-2.53,0-2.53-1.15s-.6-1.44-3.47-.88a45,45,0,0,1-8.19.6c-4.68-.09-4.73,0-9.6,5.87a103.68,103.68,0,0,1-7.74,8.54c-2.11,1.92-2.44,2.62-1.3,2.64a5.17,5.17,0,0,1,3,1.52c.8.82,1.45,1,1.45.48,0-1.52,3.3-1.24,4.62.4,1.51,1.9,4,1.9,3.36,0-.32-.83,0-1.42.72-1.42,1.45,0,2.34,2.91,2.36,7.76a28.39,28.39,0,0,0,1.41,7.54c1.56,4.58,1.25,5.66-1.06,3.69-1.44-1.23-1.51-.95-1,3.7.32,2.86.22,4.83-.24,4.53a1.09,1.09,0,0,0-1.46.52c-1,1.69,3.33,5.79,5.41,5.1,1.26-.4,1.58-.25,1.09.56a1.49,1.49,0,0,0,.55,2c.93.59.63,1-1.17,1.74a7.33,7.33,0,0,0-3.06,2c-.38.63-1.64.84-3,.5-2.06-.54-2.2-.38-1.52,1.6,1,3,.8,7.1-.75,12.6-1.09,3.87-1.81,4.88-4,5.57a51.15,51.15,0,0,0-5.05,1.89,20.09,20.09,0,0,1-3.22,1.21c-3,.51-6.92,3.06-7.78,5-1.12,2.54-2.84,2.09-2.84-.74,0-1-.4-1.87-.91-1.87-1.84,0-.87-2.08,2.51-5.29,2.48-2.35,4.36-3.3,6.51-3.3,2.32,0,3.25-.56,4.06-2.39a3.48,3.48,0,0,1,3.17-2.38c2.86,0,4.18-2.88,4.18-9.16,0-4,.43-5.64,1.82-7,1.58-1.52,1.92-3.41,2.33-13.34.33-8,.17-11.58-.51-11.58s-1,1.54-1,3.39c0,4.77-2.4,9.82-8.76,18.44-3.57,4.84-6.48,6.62-9.16,5.56-1.36-.54-4.24,2.09-4.24,3.89,0,.58-1.06,1.92-2.36,3L603.84,186l2,2.78a8.5,8.5,0,0,1,1.68,5.92c-.25,2.69-.82,3.34-3.76,4.39l-3.46,1.23-.11-3.52c-.06-1.58,0-3.15,0-4.72.08-.66-.44-.94-1.18-.64-1.88.74-2.7-1.12-1.52-3.41.85-1.65.72-1.92-.92-1.92a9.2,9.2,0,0,0-4.2,1.56c-2.86,1.93-3.52,1.36-2.28-2l.95-2.57-3.63,2.69c-3.36,2.48-3.5,2.81-2.16,4.35.92,1.06,1.81,1.36,2.46.81,1.22-1,6.1-.22,6.1,1,0,.48-.75,1.15-1.64,1.5a12.45,12.45,0,0,0-3.26,2.24c-1.59,1.52-1.56,1.79,1,6.34,1.95,3.44,2.48,5.18,1.86,6.32s-.52,1.58.08,1.58c2.32,0-5,12.16-9.36,15.58a30.56,30.56,0,0,1-8.6,4c-4.87,1.4-5.61,1.92-5.79,4.06-.35,4.48-4.16,6.9-5.44,3.46-.37-1,.17-2.22,1.54-3.36,1.17-1,1.89-2,1.6-2.35-1-1.06-4.8.54-6,2.56-1.1,1.83-.85,2.44,2.53,6.23,3.23,3.62,3.75,4.78,3.75,8.53s-.32,4.48-2.55,5.5a11,11,0,0,0-3.74,2.84c-1.62,2.27-3.87,2.13-3.87-.24,0-1.07-.61-1.9-1.41-1.9a2.27,2.27,0,0,1-1.95-1.42A2.2,2.2,0,0,0,550.8,252a1.37,1.37,0,0,1-1.28-1.44c0-.78-.43-1.44-.94-1.44-1.06,0-1.24,8.59-.22,10.06a14.63,14.63,0,0,0,3.12,2.56,7.59,7.59,0,0,1,2.91,4.29c.27,1.47.78,3.65,1.14,4.83.53,1.73.31,2.14-1.15,2.14-2.76,0-6.45-4.1-7.56-8.38-.56-2.09-1.63-4.33-2.38-5-.94-.8-1.34-2.82-1.27-6.26s-.34-5.56-1.33-6.58a10.09,10.09,0,0,1-2-3.39c-.62-2.06-1.86-2.48-2.77-1a3,3,0,0,1-2.36,1c-1.4,0-1.8-.67-1.8-3a12.05,12.05,0,0,0-2.14-6,25.46,25.46,0,0,1-2.77-4.73c-.48-1.34-1-1.51-1.85-.74a9,9,0,0,1-4.15,1.27c-1.63.12-2.92.76-2.92,1.42s-1.26,1.89-2.78,2.7-2.77,1.84-2.77,2.28-2,2.27-4.51,4c-4.38,3.13-4.49,3.32-4.42,7.93,0,3.22.6,5.28,1.73,6.46,3.16,3.27,1.87,9.36-2,9.36-1.32,0-1.94-4.75-.89-6.79,1.6-3.1.26-3.25-2.27-.24-2,2.4-2.44,2.56-3.57,1.29-2.3-2.56-9.08-20-9.22-23.72-.13-3.24-.35-3.57-2.28-3.18-2.19.43-5.76-2-5.8-4,0-.57-1.1-2.11-2.42-3.41-2.15-2.1-3.24-2.36-10.6-2.51-4.93-.1-8.76-.64-9.6-1.34-1.12-1-1.38-.89-1.38.38,0,.87,1.47,2.27,3.25,3.15,3.77,1.85,4.29,4.92,1.37,7.93a7.36,7.36,0,0,0-1.84,2.59c0,1.28-6,6-7.62,6a5.1,5.1,0,0,0-3.2,1.91,5.32,5.32,0,0,1-2.54,1.92,10.94,10.94,0,0,0-3.32,1.3,60.43,60.43,0,0,1-7.56,3c-4.51,1.47-5.06,1.91-4.2,3.33s1.52,1.51,5.72.51c2.6-.63,5.64-1.43,6.74-1.79,5.79-1.9-.5,13.83-8.38,21L430,275.89l-1.52.95-2.28,2.64c-3.94,4.53-5,7.35-4.53,12.16a20.65,20.65,0,0,0,1.12,5.56c.39.62.77,3.8.85,7.08.14,5.36-.1,6.16-2.2,7.88a9.32,9.32,0,0,1-3.36,1.94c-.57,0-2.19,1.25-3.6,2.74-2,2.09-2.4,3.16-1.81,4.8,1.29,3.6.27,8.34-2,9.43A5.5,5.5,0,0,0,408,335c-.64,3.32-7.28,13.21-10.56,15.78-2,1.54-12.48,3.71-17.28,3.58a4.54,4.54,0,0,1-3.85-5.16c.44-1.76-2.39-8.69-4.61-11.31-.72-.85-1.85-4.49-2.52-8.11-1.2-6.51-3.4-12.13-5.2-13.28-2-1.3-.36-10.57,2.51-14a4,4,0,0,0,.72-3.68,28.81,28.81,0,0,1-.9-4.12c-.48-3.76-2.38-7.6-5.6-11.29-1.75-2-3.2-4.3-3.2-5.08,0-.07-.1-.11-.14-.16h.2l.67-2.21.63-3.48c.73-4.05-.49-5.41-4.27-4.7-1.88.35-2.81-.1-3.95-1.89-1.75-2.77-4.37-3-9.41-.78a31.58,31.58,0,0,1-9.11,1.84c-3,.16-6.33.32-7.31.4-2.33.15-11.58-6.48-12.53-9a21.51,21.51,0,0,0-4.06-5.26c-1.83-1.81-3.31-4-3.31-5a3,3,0,0,0-1-2.29c-.66-.42-.54-1.14.36-2.21,2.18-2.57,2.6-5.42,1.48-10-1-4.08-.88-4.64,1.84-9.58a42.1,42.1,0,0,1,10.18-12.29,6.35,6.35,0,0,0,1.9-4.17c0-1.62,1.11-3.61,3.1-5.55,5.64-5.51,6.21-9.12,1.44-9.12-3,0-3,.2-3.09-11,0-4.66.33-7,1.23-7.72s3.9-.88,8.08-.6l6.77.45v-3.49c0-4.21-2.31-8.21-4.74-8.21-2.22,0-3.35-2.75-1.62-3.92a5.14,5.14,0,0,1,3.49-.35c1.89.47,2.11.26,1.67-1.49s-.19-2,1.5-1.55c1.92.48,6.06-1.7,5.11-2.69-.46-.48-8.76.82-12.72,2-2.18.65-2.19.61-.72-1.58,1.14-1.68,1.26-2.54.48-3.52s-.61-1.6.72-2.65,1.44-1.38.37-1.44-.72-.63.85-2c2-1.71,2.08-2.08.85-3.36s-1.52-1.26-2.67.17a6.73,6.73,0,0,0-1.41,2.67c-.06.58-.16,1.94-.24,3-.09,1.36-1.24,2.27-3.82,3.1-4.86,1.57-5.25,1.52-5.82-.72-.26-1.05-.05-1.9.46-1.9s.69-1,.37-2.32c-.76-3.17.24-5.58,2.07-4.86.8.32,1.16.27.8-.1-1.1-1.14,2.08-4,3.89-3.52,1.12.3,1.81-.2,2.16-1.55.27-1.09.14-2-.31-2-.9,0-.14-5.28,1.15-7.87a3.7,3.7,0,0,1,3.2-1.68c1.92,0,2.29.36,1.9,1.91s0,1.92,1.27,1.92c2,0,2.22,1.15.78,3.93-.72,1.42-.68,2.31.19,3.4a37,37,0,0,1,4.43,7.72,5.77,5.77,0,0,0,2.36,2.73c1.07.43,1.29,1.39.85,3.84-.58,3.16-.52,3.22,1.59,2.21a9.47,9.47,0,0,0,3.56-4.08,6.27,6.27,0,0,1,4.85-3.92c3-.77,3.45-1.28,3.45-3.6,0-1.48-.4-2.7-.91-2.7-2,0-.92-5.6,1.51-7.56a10.06,10.06,0,0,1,3.12-2c1.36,0,1.64,6.17.34,7.7-2.54,3-.94,5.23,3.49,4.88,1.38-.11,2.74.23,3.06.76s1.45.51,3.06-.32c3.9-2,7.57-2.73,7.57-1.44,0,2.59,3.55-2.42,4-5.68,1-6.73,1.75-9.73,2.56-9.73a6.46,6.46,0,0,0,2.66-1.91,7.38,7.38,0,0,1,5.31-1.92,11.38,11.38,0,0,0,4.82-.9c2.73-1.79-1.94-2.32-6.18-.69-3.74,1.44-4.25,1.44-6.31.05-1.23-.84-2.27-1.79-2.3-2.13l-.45-5.28c-.36-4.2-.08-5.06,2.6-8.22,6.16-7.28,6.38-7.68,5.21-9.14A3.89,3.89,0,0,0,388,90.66c-1.73,0-4.09,4.34-3.19,5.86.32.52-1.34,2.76-3.68,5-5.32,5-6.67,9.12-4.16,12.41s2.14,8.24-.52,8.24c-.69,0-1.62,2.36-2.26,5.73-.88,4.67-1.43,5.72-2.89,5.72-1,0-1.79.45-1.79,1s-.82.94-1.84.94-1.86.44-1.86,1c0,1.59-2.78,1.09-3.4-.6a2.46,2.46,0,0,1,1-2.76c1.48-1.12,1.46-1.52-.19-6.6l-1.76-5.4-2.8,2.43c-4.79,4.16-7.15,2.9-8.11-4.31a61,61,0,0,1-.52-11.22c.05-.68.52-1,1-.66s.92,0,.93-.65,1.71-2.54,3.76-4.11c3.19-2.44,9.55-10.88,9.62-12.78,0-1.38,4.52-9.68,5.21-9.68.42,0,.77-.54.77-1.23A6.38,6.38,0,0,1,373,75.8a23.46,23.46,0,0,0,2.82-4.28,12.44,12.44,0,0,1,4.4-4.22c1.74-1,3.17-2.14,3.17-2.59s1-.56,2.14-.25c2,.52,5.17-1.79,4.53-3.3-.13-.32.7-.69,1.84-.81,6.84-.75,8.13-.55,10.38,1.64s2.26,2.33.72,4.13-1.54,1.85,1.46,1.18c2.62-.58,3.12-.42,3.56,1.3a2.48,2.48,0,0,0,2.67,2c1.19,0,3.53,1.19,5.2,2.66a61.14,61.14,0,0,0,5.62,4.36c4.61,3,5.07,8.05,1,10.83-1.89,1.28-2.81,1.31-6.58.26a25.12,25.12,0,0,1-5.75-2.24c-1-.72-.92-.47.18.87a8.88,8.88,0,0,1,1.49,5c-.1,3.37,2.34,6.92,4.72,6.88,1.25,0,1.21-.19-.16-1a4.13,4.13,0,0,1-1.61-3.29c0-2.67.64-2.85,3.17-.87s4.13,1.76,3.55-.55c-.71-2.78,4.09-7.68,6.85-7,2,.49,2,.33,1.48-4.59-.3-2.8-.95-5.64-1.44-6.29-.67-.87-.44-1.2.8-1.19,5.44,0,8.63,3.68,5.38,6.12-.88.68-1.31,1.72-.95,2.32,1,1.7,3.12,1.28,3.73-.72.54-1.74,7-6.78,8.68-6.78a3.72,3.72,0,0,0,2-1.44,4.17,4.17,0,0,1,2.8-1.42c1.24,0,1.5.52,1.12,2.14s-.26,1.94.75,1a5.45,5.45,0,0,1,3.3-1.2,3.49,3.49,0,0,0,2.69-1c.33-.56,1.55-.79,2.68-.5s2.32.28,2.63,0c.88-.91-1.12-4.16-2.56-4.16s-2.76-3.3-1.84-4.83c.4-.68,1.28-.4,2.58.82a23.59,23.59,0,0,0,6.6,3.44,30.71,30.71,0,0,1,8.17,4.54c3.46,2.87,3.56,2.9,2.92.7a7.93,7.93,0,0,0-2.06-3.42c-.93-.76-1.2-1.94-.81-3.56a6.68,6.68,0,0,0-.51-4.28c-.95-1.55-.74-2.43,1.36-5.55,1.36-2,2.48-4.63,2.48-5.75a5.51,5.51,0,0,1,1.21-3.28,9.78,9.78,0,0,0,1.8-2.94,2.47,2.47,0,0,1,1.94-1.67c2,0,2.56,2.69.78,3.77-1.33.8-1.16,1,1,1s2.53.39,2.53,2.93a12.45,12.45,0,0,1-.92,4.72c-.64,1.26-.61,2,.14,2.47s.83.26.48-.32.32-2.18,1.46-3.66,1.94-3.44,1.8-4.33a2.38,2.38,0,0,1,.64-2.22c1-.66,2.57,2,2.43,4.25-.13,2,1.54,2.95,2.69,1.45,1.95-2.53,4.72-2.55,7.33,0,1.37,1.32,3,2.41,3.52,2.41s-.06-1-1.36-2.26a11.12,11.12,0,0,1-3-6.56c-.72-4.93-.63-5,7.26-6,5-.64,6.33-1.55,4.3-2.84-1.47-.94-1.11-5.27.44-5.27.82,0,1.15-.56.82-1.44s.06-1.42,1.31-1.42a2.54,2.54,0,0,0,2.33-1.33c.27-.73,2.1-1.88,4-2.54a12.5,12.5,0,0,0,4.44-2.38c1.4-1.78,6-2.58,7.47-1.31a2.93,2.93,0,0,0,2.91.36,9.2,9.2,0,0,1,3.93-.5c1.87.18,2.09,0,1.16-1-1.76-1.87-1.39-2.75,1.12-2.75,1.63,0,2.12-.42,1.76-1.42-.65-1.76,2.88-7.81,5.34-9.17a3,3,0,0,1,1-.33Zm-453.16.9c.38.12.78.61,1.41,1.53.89,1.32,1.09,2.28.5,2.48s-.76,1.35-.53,2.59,0,2.53-.61,2.88a2.87,2.87,0,0,0-1,2.26c0,1.48.11,1.48,1-.05,1-1.77,4.55-2.33,4.55-.72,0,.52.64,1,1.42,1s2.14,1.28,3,2.85,2.34,2.85,3.42,2.85c1.41,0,1.56-.21.58-.85a1.45,1.45,0,0,1-.69-1.82,1.18,1.18,0,0,0-.32-1.6c-1.47-.93-1.13-2.79,1-5.09s4.14-1.94,3.28.37a1.65,1.65,0,0,0,.45,1.91,1.72,1.72,0,0,1,.46,1.95c-.35.92.21,1.33,1.76,1.33,2.68,0,4.25,2.62,3.52,5.81-.51,2.21-.47,2.24.85.47s1.4-1.8,2.46.24c.59,1.14.85,2.12.58,2.18-1,.19-2,.34-3,.46-6.91.87-10.15,1.76-12.38,3.39-3.11,2.26-5.87,2.27-7.41,0A16.5,16.5,0,0,0,101.18,31c-2.27-1.38-2.86-2.28-2.46-3.76.35-1.31.24-1.54-.32-.72-.81,1.22-3.9.64-3.9-.72,0-1.13,3.27-3.85,4.64-3.85,1,0,1-.26.19-1.11s-1.55-.51-3.07,1.48c-1.35,1.78-2.45,2.4-3.48,1.94a8.14,8.14,0,0,0-3-.59c-2.52.1-2.71-2.48-.38-5.08a56.45,56.45,0,0,0,4.34-5.76c1.28-2,2.77-3.2,3.6-3a3,3,0,0,0,2.62-1c.53-.58.9-.83,1.28-.72Zm103.64.47c-.79,0-1.42.43-1.42,1a.91.91,0,0,0,.86,1,2,2,0,0,0,1.44-1C206,9,205.64,8.55,204.84,8.55ZM479,14.33c1.34-.13,2.33.6,2.73,2.24.87,3.58-.9,5.78-6.86,8.55a26,26,0,0,0-8.4,6.12c-1.6,2-3.73,4.59-4.74,5.84a53.16,53.16,0,0,0-4.65,8.52c-3.2,7.07-3.15,11.36.16,15,1.08,1.19,1.6,2.39,1.15,2.67-1.06.68-6.35.52-7.44-.21a7,7,0,0,1-1.46-3.2c-.41-1.77-1.22-2.63-2.45-2.63s-1.84-.64-1.84-2.44c0-1.38.41-2.2.93-1.86.91.58,1.3-.69,1-3.17a8,8,0,0,1,1.48-3.83c.9-1.4,1.54-3,1.42-3.66s.65-2.64,1.74-4.54,1.76-4.3,1.48-5.39c-.32-1.28,0-2.16,1.05-2.55.84-.32,3.46-2.6,5.8-5.09,3.6-3.84,4.75-4.51,7.6-4.43,2.61.08,4.06-.6,6.43-3,1.84-1.86,3.53-2.85,4.88-3Zm-373.52.2a1.84,1.84,0,0,1,1.92,1.71c0,1.12-1,1.14-2.64.06-.88-.57-.93-1-.22-1.48A1.82,1.82,0,0,1,105.5,14.53Zm32.32,1.69a3,3,0,0,1,1.33.83c1.23,1,1.55,2.75,1.41,7.87l-.17,6.54h-3.68c-3.49,0-3.64-.12-3.28-2.69.35-2.42.16-2.65-1.87-2.25s-2.2.22-1.62-2.16c.41-1.72.29-2.4-.35-2-1.8,1.16-4.17-.4-4.31-2.83-.15-2.74,1.58-3.14,3.76-.88.8.83,1.46,1.14,1.46.7,0-1.66,3.79-3.31,5.06-2.22.9.78,1.33.72,1.62-.19.16-.48.35-.72.64-.72Zm162,.34c-.32-.21-.78.16-1.74.9-1.55,1.17-1.57,1.34-.11,2.84,2.29,2.38,3.39,2,2.7-1-.39-1.68-.55-2.49-.85-2.72Zm325.36,5a2.52,2.52,0,0,1,1.28,0,3.59,3.59,0,0,1,1.51.87c1.51,1.42,1.77,1.43,2.48.11s1.4-1.09,4.94,1.35c2.27,1.55,5.17,2.88,6.43,2.92,2.51.08,6.58,1.6,5.07,1.88-.51.1.32.45,1.84.79,3.06.67,3.63,2.69,1.21,4.28-2,1.28-8.12-1.49-8.12-3.66s-1.4-1.79-4.2.89a8.48,8.48,0,0,1-4.88,2.33,31.3,31.3,0,0,0-5.36.62c-2.48.54-3.17.24-4.51-1.85-2.53-4-.57-9.76,2.3-10.53Zm-5.51,2.32c.51,0,.92,1.28.92,2.85s-.41,2.88-.92,2.88-.92-1.31-.92-2.88.42-2.84.92-2.84Zm-475,1.91c3.48,0,6,7.74,2.86,9-1.92.77-1.61.9-4.06-1.8-1.86-2-2-2.72-1.11-4.78.58-1.32,1.61-2.4,2.31-2.4ZM91.31,34.56a4.13,4.13,0,0,1,2.22,1.16A5,5,0,0,0,97.17,37c1.31-.22,3.09,1,5.63,3.85,2,2.31,3.7,4.58,3.7,5.07s.4.64.89.32,2,.14,3.23,1c2.19,1.48,2.33,1.49,2.33-.06s.16-1.55,2.32-.09,2.29,1.51,2.29-.85c0-1.42.54-2.4,1.3-2.4a2.19,2.19,0,0,0,1.81-1.44c.55-1.48,4.76-2,5.55-.68.24.4,0,2.52-.6,4.7a12.85,12.85,0,0,0,0,7.6c.59,2,1.32,4.62,1.63,5.8s1,2.18,1.64,2.19c1.72.05,5.24,3.46,5.24,5.08a3.26,3.26,0,0,1-1.6,2.4c-.89.51-1.32,1.24-.94,1.63,1.17,1.2-1.26,3.27-3.84,3.27-1-.27-3.74-1.12-4-1.12,0,0-7.84,2.26-9.25,2.6a15.38,15.38,0,0,0-3-.19c-1.71-.55-4,.88-5-2,0-.59-1.43-1.55-3.16-2.14-2.84-1-4.24-2.56-4.24-4.81,0-.44,1.16-1.23,2.56-1.75l2.52-1L101.3,64c-3-.08-4-1.4-4-4.93,0-1-.4-1.83-.9-1.83-1.3,0-1.16-3.2.22-4.71,1-1,.8-1.06-.92-.16a4,4,0,0,0-2.08,3A2.79,2.79,0,0,1,92,57.89a12.34,12.34,0,0,0-3.17,2c-1.38,1.23-1.7,1.06-3-1.46A8,8,0,0,0,82.89,55c-1.07-.43-1.35-1.23-.92-2.74a45.66,45.66,0,0,0,1-4.73,17.31,17.31,0,0,1,1.31-4.42,6.81,6.81,0,0,0,.13-4.75c-.81-2.92-.78-3,3.3-3.58a11.82,11.82,0,0,1,3.62-.18Zm538.58,2a2.1,2.1,0,0,1,1.19,2.7c-.26.42.32.77,1.26.77a4,4,0,0,1,3.94,4c0,1.33-.69,1.68-3,1.6a26.51,26.51,0,0,1-4.61-.56c-1.76-.47-2.24-2.2-.62-2.2.61,0,.77-1,.4-2.76s-.18-3,.49-3.47a1.05,1.05,0,0,1,1-.08ZM147.5,37.68a11.2,11.2,0,0,1,4.45.64c3.66,1.13,4,1.68,2.64,4.37-.45.91-1.28,2.84-1.82,4.28s-1.59,2.63-2.3,2.63c-1.73,0-2.73,4.33-1.53,6.64a9.14,9.14,0,0,1,1,3.42,8.86,8.86,0,0,0,1.84,4c1.4,1.85,1.6,2.72.8,3.72s-.7,1.29.46,1.29c.91,0,1.5.8,1.5,2,0,1.72.2,1.84,1.42.8,2.08-1.78,4.3.82,4.3,5A11.61,11.61,0,0,0,161,81.2c.47.76.82.88.83.28a22.46,22.46,0,0,1,1.56-4.79c2.35-5.61,1-10.85-2.72-10.85-3.12,0-6.48-7.32-5.84-12.66,1-8.25,3.75-12.18,8.55-12.18,2.32,0,2.9.34,2.49,1.43-.46,1.26-.23,1.26,2.1,0,4.11-2.2,12.23-1,14.88,2.25a10,10,0,0,1,2.1,3.49c.06,1.79,5,7.79,6.16,7.4.61-.21,1.85.57,2.76,1.72a30,30,0,0,0,2.92,3.16c4.19,3.63,6.55,6.9,6.08,8.45-.32,1,0,1.7.69,1.72s.68.46-.4,1.31c-2.13,1.68-2.05,3.18.23,3.92,1,.34,1.84,1,1.84,1.46s.72.6,1.61.26,1.32-.24.95.19,1,2.36,3,4.3c4.15,4,4.42,5.19,1.84,8.59a8.93,8.93,0,0,0-1.82,3.58,1.15,1.15,0,0,1-1,1.2c-1.22,0-5.47-4.72-5.51-6.12,0-.58-.45-.32-.93.54-1.09,1.94-.24,4.62,1.46,4.62,3,0,5.28,11.2,2.47,12.16-.62.22-1.14-.07-1.14-.64s-.35-1-.78-1-.58,1.13-.33,2.51c.48,2.64.75,2.6-5.11.85-1.14-.33-2.08-1-2.08-1.41s-1-1-2.28-1.37a6.07,6.07,0,0,1-3.37-2.7c-2.37-4.58-4.95-5.95-8.28-4.37-2.51,1.17-4.9-1.38-4.16-4.44.56-2.28,1-2.58,3.19-2.13,2.92.61,5.29-.54,4.36-2.11-.35-.59.21-2.2,1.26-3.58a9.39,9.39,0,0,0,1.89-4.59c0-2.86-4.74-7.46-6.84-6.63-1.3.52-1.58.2-1.34-1.65.32-2.51-2.36-7.28-3.25-5.79-.31.52-2,1-3.84,1-4,0-5.1.89-3.07,2.43,1.12.85,1.47,2.6,1.39,7-.14,7.14-3,11.65-7,11-2.14-.35-2-.11,1.35,3,2,1.87,4,3.43,4.4,3.43s.69.52.69,1.19a3.89,3.89,0,0,0,1.87,2.42c1,.67,1.64,1.63,1.33,2.14-.74,1.25-4.8,1.17-5.56-.11-.4-.66-1.33-.32-2.64,1-1.77,1.72-2.33,1.84-4.49.8-2.44-1.17-3.12-2.62-1.87-3.92a6.53,6.53,0,0,0,.91-2.8l.27-2.13-1.19,2.21a14,14,0,0,1-4.14,4c-1.62,1-2.94,2.42-2.94,3.08s-1.31,2.49-2.91,4c-5.13,5-7.24,13.54-3.57,14.53,1.14.32,2,1.6,2.36,3.48.44,2.48,1,3,3.15,3.1a12.61,12.61,0,0,1,5.69,2.39c4.77,3.54,7.26,4.67,10.16,4.67,2.53,0,2.65.21,2.65,4.24,0,3.17.58,4.93,2.28,6.93,3,3.48,4.21,1.84,3.12-4.17-.72-4.05-.59-4.5,2-7,1.52-1.47,2.76-3,2.75-3.48,0-2.57-2.07-7.85-3.23-8.32-1.79-.71-1.78-3.47,0-3.47,1.14,0,1.35-1.36,1.16-7.4s0-7.33,1.15-7a31.89,31.89,0,0,0,5.12.47,7.3,7.3,0,0,1,6.2,2.78c1.33,1.49,3.12,2.82,4,3,1.13.17,1.61,1.31,1.77,4.1a9.44,9.44,0,0,0,2.08,5.77c1.74,1.81,1.93,1.81,3.21.27a12.3,12.3,0,0,0,2-4.17c.6-2.48,3.36-3.65,3.36-1.42a5.22,5.22,0,0,0,1.31,2.62c.72.83,2.19,4.25,3.27,7.6,2.15,6.62,3.2,8.1,6.37,9.14a6,6,0,0,1,3.1,3c.56,1.27,1.54,2.32,2.16,2.32,1.44,0,2.23,5.34,1,6.64-.64.66-.57,1,.2,1s.89.47.14,1.92c-1.14,2.23.59,4.75,3.27,4.75,1,0,1.36.54,1,1.46s-.17,1.42.26,1.42c1.28,0,1.9,4,.91,5.89-.73,1.42-1.28,1.58-2.74.77a3.29,3.29,0,0,0-2.67-.47,1.05,1.05,0,0,1-1.42-.43c-.32-.54-2-1-3.78-1-2.82,0-3.17-.24-2.88-2.12a26.94,26.94,0,0,1,2.05-5.73c1.91-4,1.32-5.66-1.16-3.35a11.45,11.45,0,0,1-4.19,2.19c-2.05.53-2.34.91-1.49,2s.64,1.32-1.12,1.3a7.8,7.8,0,0,1-4-1.42c-2-1.6-5.12-1.89-5.12-.48,0,.53,1.28,1,2.88,1,2.72,0,2.86.16,2.32,2.95-.62,3.23.48,5,3.72,5.84,1.27.34,2.21.06,2.52-.77.72-1.92,2.18-1.63,2.86.58s-.74,3.92-5.08,5.68A20.17,20.17,0,0,0,208,173.4c-2.28,2-3.63,1.52-3.71-1.35,0-1.44-.27-2.11-.51-1.49s-1.86,1.62-3.58,2.21c-3.14,1.07-5.39,4.82-3.33,5.53,1.42.49,1.32,2.1-.12,2.11-2.14,0-8.24,2.05-7.74,2.58.28.29-.54,2.62-1.81,5.21s-2.06,5.51-1.75,6.51c.4,1.29-.41,2.49-3,4.47-6.06,4.7-8.59,7.28-8.59,8.74a38.77,38.77,0,0,0,1.55,6.48c1.27,4.16,1.32,5.32.35,6.54a4,4,0,0,1-1.84,1.47c-.93,0-4.68-7.13-4.68-8.89,0-2-.79-2.42-6.94-3.17-4.75-.58-5.28-.47-4.77.93.64,1.73-1.73,2-7.2.74-2-.45-3.59-.07-5.68,1.31-2.61,1.75-3,2.53-3.52,8.13-.67,6.66.16,10.21,3,13.2,2.38,2.46,8.75,1.57,9.23-1.28a5.79,5.79,0,0,1,1.81-3.08c1.54-1.24,7.6-1.68,7.6-.54a79,79,0,0,1-2.88,9.6c-.73,2-.56,2.15,2.8,2.15,5.92,0,6.51.57,6.51,6.17,0,6.54,2.5,10,6,8.32a5.5,5.5,0,0,1,4.77-.12c2.12.84,2.75.66,4.39-1.33,2-2.38,9.75-5,9.75-3.33,0,.51.83.66,1.83.33a5.77,5.77,0,0,1,3.89.56c1.15.64,4.51,1.12,7.45,1.09,4.54,0,5.76.35,8,2.49,6.41,6.07,8.93,7.79,11.44,7.79a11,11,0,0,1,10.2,6.7c.88,2.08,1.35,4.2,1,4.73,0,0,.55,0,.59.06l-.16.16,6,1.72,3.07,1.94a22.31,22.31,0,0,0,7.38,2.51,17.79,17.79,0,0,1,7.08,2.75,14.1,14.1,0,0,0,4.62,2.48c1.43.27,1.91,1.22,2.13,4.23.24,3.4-.27,4.53-3.95,9.15-3.43,4.32-4.18,6-4.18,9.09a26.3,26.3,0,0,1-4.25,13.76c-1.65,2.75-2.84,3.59-5.76,4.08-5,.81-9.38,4.72-9.38,8.28,0,2.72-2.87,8.24-6.2,11.9a55,55,0,0,0-3.9,5.1c-1.81,2.7-2.6,3.13-5.13,2.82-3-.36-3.48.35-1.94,2.9,1.88,3.12-3.05,7.79-8.24,7.79-1.72,0-2.4.69-3,3.11-.68,2.59-1.2,3.07-3.26,2.92-1.35-.1-2.45.21-2.45.7s.57.89,1.28.89c2.13,0,2.51,2.75.53,3.84a3.56,3.56,0,0,0-1.81,2.62c0,.88-1.15,2.58-2.55,3.78L202,385.68l2.16,1.87c2.41,2.12,2.15,4.46-.8,7.22a5.62,5.62,0,0,0-1.81,2.66,3.84,3.84,0,0,1-1.6,2.12c-1.33,1-1.4,1.58-.45,3.73a13.54,13.54,0,0,1,1.11,4.24c0,1.92,3.67,5.84,5.46,5.84a.83.83,0,0,1,.77,1.2c-.37,1.17-6.9,1.68-11.57.92-1.41-.24-2.05-.88-1.84-2A2.72,2.72,0,0,0,192,411a6.71,6.71,0,0,1-2.48-2.37c-1.42-2.89-2.91-12.22-2.56-16,.26-2.83,0-3.73-.81-3.39S185,388.9,185,387.6a2.55,2.55,0,0,1,1.84-2.61,2.48,2.48,0,0,0,1.85-2.2,11.19,11.19,0,0,1,.58-3.24c.37-1,0-1.51-1-1.51-1.22,0-1.45-.52-1-2.15a71.58,71.58,0,0,0,1.12-8.36,45.58,45.58,0,0,1,2.27-10.68,28,28,0,0,0,1.77-8.58,82.81,82.81,0,0,1,1.41-11.59,95.09,95.09,0,0,0,1.37-14.19c0-5.77-.29-6.93-2.08-8.47a8.16,8.16,0,0,0-2.86-1.82c-2.6-.12-6.51-4.84-9.86-11.92-2.07-4.39-4.57-8.71-5.56-9.64-1.81-1.68-2.4-5.23-1.11-6.57a7.68,7.68,0,0,0,.7-3.74v-3l1.38-2.17a12.52,12.52,0,0,1,2.53-3.54c1.39-1.55,2.41-3.69,2.28-4.76-.8-6.48-1.31-8.16-2.53-8.16a1.4,1.4,0,0,0-1.34,1.44c0,1.6-2.36,1.95-3.24.47a2.38,2.38,0,0,0-1.84-1c-1.71,0-7.76-4-7.84-5.24-.16-2.12-3.48-4.89-7.4-6.18a24.23,24.23,0,0,1-6.8-3.58c-2-1.7-3.31-2.08-5.56-1.65s-4.73-.27-10.24-2.88c-8.83-4.16-10.77-5.8-10.1-8.56.37-1.51-.54-3.19-3.47-6.39-6.23-6.82-10.79-12.84-11.78-15.55-.5-1.36-1.34-2.48-1.86-2.48-1.5,0-1.12,1.43,1.13,4.12a46.79,46.79,0,0,1,4.37,7.07c1.27,2.51,2.85,4.92,3.48,5.34a2.85,2.85,0,0,1,1.15,2.14,1.25,1.25,0,0,1-1.15,1.36c-1.7,0-6.43-4.62-5.82-5.64.29-.48-.83-1.84-2.48-3-1.16-.81-2.31-1.64-3.44-2.49-.24-.2.17-.75.9-1.22,1.14-.73,1.1-1.12-.32-2.57a32.84,32.84,0,0,1-3.79-6c-1.21-2.44-3.28-4.9-4.78-5.67-3.2-1.62-4-2.65-7.78-10.33-2.84-5.73-3-6.44-3.08-18-.1-10.64-.31-12.18-1.87-13.36-5.39-4.06-7.12-6.27-6-7.64.85-1.06.73-1.92-.55-4a13.34,13.34,0,0,0-2.88-3.39,4.09,4.09,0,0,1-1.23-3.13,6.15,6.15,0,0,0-1.86-4,5.3,5.3,0,0,1-1.84-2.85c0-1.64-2.92-5.06-3.84-4.48-.4.26-1-.64-1.31-2-.37-1.52-1.23-2.4-2.32-2.4s-3.65-1.52-6-3.36c-2.95-2.32-5.2-3.33-7.4-3.33A15,15,0,0,1,41,116c-2-1.33-3.67-2-3.67-1.52a1.65,1.65,0,0,0,1.16,1.29c.9.32.9.72-.06,1.92a2.55,2.55,0,0,1-2.52,1c-.7-.28-2.21.18-3.36,1-3.4,2.47-4.78,2-4.11-1.49l.58-3-1.84,2.42c-1,1.34-1.63,3.08-1.33,3.87a1.78,1.78,0,0,1-.46,2,2.29,2.29,0,0,0-1,1.78c0,.63.44.38,1-.54a3.17,3.17,0,0,1,2.24-1.66c2.31,0,1,4.39-2,7.07l-3,2.57.24-3.36c.29-3.76.56-3.85-6.08,2.44-2.08,2-4.14,3.36-4.56,3.09s-.74.22-.74,1.06-.41,1.3-.9,1-2.36.08-4.16.86c-3.92,1.69-4.63,1.78-4.63.61,0-.93,6.48-5.78,7.71-5.78s6.36-5.68,6.85-7.63c.4-1.57.2-1.75-1.18-1-1.23.67-1.79.53-2.18-.48s-1.32-1.23-3.28-.82c-2.53.52-2.72.36-2.36-1.73s0-2.28-2.13-2.25c-2,0-2.52-.42-2.54-2.07a6.81,6.81,0,0,0-2.22-4.06,5.07,5.07,0,0,1-.42-.5v-4.53c1.82-2.48,7-6.47,8.64-6.47,1.18,0,1.26-2.56.1-3.3a1.06,1.06,0,0,0-1.46.42,1.15,1.15,0,0,1-1.67.27,6.28,6.28,0,0,0-2.48-.83q-1.42-.1-2.85-.24c-.08,0-.19-.12-.28-.16V87.2a7.49,7.49,0,0,1,3.5-1.32A1.46,1.46,0,0,1,5,87.32a1.42,1.42,0,0,0,1.39,1.44c.77,0,1.39-.87,1.39-1.92s-.4-1.92-.89-1.92-2.76-1.86-5-4.16A19.52,19.52,0,0,1,0,78.6V72.82a3.47,3.47,0,0,1,1.22-.3c2,0,2.79-.73,4.08-3.76,1.53-3.58,7.16-8.3,9.44-7.88.55.1,1.75-.65,2.65-1.68,1.46-1.68,1.92-1.74,4.08-.62a27.8,27.8,0,0,0,5,1.9c1.4.34,2.54,1,2.54,1.56s1.28.93,2.81.93a18.52,18.52,0,0,1,6.09,1.43,20.93,20.93,0,0,0,6.85,1.44c1.94,0,3.75.37,4,.84s1.91,1.12,3.63,1.45a9.79,9.79,0,0,1,4.76,2.5c2.38,2.72,4.13,2.37,10.47-2,4-2.74,6.19-3.7,7.52-3.27s1.8.22,1.64-.52a1.43,1.43,0,0,1,.9-1.59c.68-.25,1.79,1.06,2.69,3.2l1.53,3.68,1-2.62c1.09-3.07,2-3.36,2.66-.83.34,1.31,1.06,1.68,2.66,1.36,1.28-.26,4.21.59,6.94,2s5.73,2.47,7,2.47a5.33,5.33,0,0,1,3.22,1.09L107,76.3c.11.25-.4.93-1.24,1.58-1.41,1.12-1.19,1.28,1.92,1.3a13.47,13.47,0,0,0,5.27-.94c1.16-.64,1.92-.64,2.29,0a2.49,2.49,0,0,0,1.92,1c2-1.55,4.6-4.88,10.6-1.92a2.84,2.84,0,0,1,2.2.87c.28.47,1.94.83,3.68.77,2.52-.07,3.22-.53,3.54-2.29.26-1.43,0-2.2-.82-2.2-1.65,0-1.62-.23.75-4.38l2-3.53,3,3.44c1.93,2.16,3.27,3,3.68,2.36s-.45-2-1.77-3.2c-1.92-1.72-2.38-3-2.34-6.26a14.71,14.71,0,0,1,1.4-6.26c1-1.57,1.18-3.49.72-7.33-.92-7.66.07-11.22,3.64-11.59Zm-5.83,2.44-.52,3.37c-.34,2.23-.08,3.83.77,4.7,1.81,1.87,1.22,6.88-1.1,9.09-2.69,2.6-4.12,2.34-5.56-1-.67-1.57-1.66-2.85-2.2-2.85-1.36,0-3.43-3-3.47-5s1.87-2.21,3.49-.53c1.42,1.47,1.42.27,0-2.4-2.36-4.44-1.63-5.2,5.09-5.32l3.5,0Zm424.08,2.13c.08-.21-.21-.2-.85,0a10.06,10.06,0,0,1-2.54.63c-.46,0-.83.65-.83,1.44,0,1.86.21,1.84,2.85-.61a6.77,6.77,0,0,0,1.37-1.49ZM712,56.46c2.83.43,4.56,3.38,2.71,4.61-2,1.35-7.4,1.17-7.36-.25C707.43,58.5,710,56.14,712,56.46Zm-222,3.45c-.33.34-.51,2.29-.52,6,0,7.16,1.33,10.94,2.93,8.3.44-.74.16-1.31-.77-1.52-1.23-.27-1.39-1.26-.94-5.74.3-3,.16-6-.32-6.82-.14-.24-.28-.3-.38-.19Zm20.1.7a5.82,5.82,0,0,0-.48,1.72c-.34,1.74-.21,2.37.36,1.76a3.38,3.38,0,0,0,.55-2.69C510.44,60.74,510.3,60.47,510.15,60.61Zm-69.28,8.48c.44,0,.91.4,1.71,1.15,1.63,1.52,1.64,1.76.2,3.39-1.58,1.81-3.24,2.23-4.32,1.11s-.68-3,.88-4.59c.69-.72,1.1-1.07,1.53-1.05Zm-256.28,7.4c1.24.24,1.75,1.17,1.75,3.2,0,2.4-.4,2.91-2.54,3.16s-2.54,0-2.54-1.91C181.29,77.82,182.57,76.08,184.59,76.49Zm306.79.8c-.52,0-.92.83-.92,1.86a3.26,3.26,0,0,1-.93,2.45c-.92.59-1.31,3.32-.48,3.32.24,0,1.07-1.26,1.84-2.8,1.64-3.27,1.79-4.84.48-4.84Zm-4.24,8.22a3,3,0,0,0-1.3.1c-1,.28-1.86.67-1.86.87s.85.36,1.86.36,1.84-.39,1.84-.87c0-.24-.21-.4-.54-.46ZM293.72,86c.77,0,1.48.67,2.39,2,.79,1.16,1.45,1.68,1.45,1.12s1.74-1.1,3.86-1.18,4.12-.56,4.42-1.06c1-1.74,4.18.1,5.78,3.4,1.48,3,1.5,3.52.2,5.58a13.28,13.28,0,0,1-4.6,3.8,12.3,12.3,0,0,0-3.68,2.48c-.76,1.28-2.32,1.12-5.06-.5a6,6,0,0,0-4-.82c-1.49.46-1.65.14-1.09-2.44s.37-2.86-.84-2.38c-1.84.74-1.85-.42,0-2.51,1.31-1.49,1.22-1.58-.93-1.16-2.84.56-3-1.2-.53-4.31,1.09-1.35,1.9-2,2.67-2ZM92.42,87.28a1.14,1.14,0,0,0-.86.15c-.62.4-.51.89.3,1.44s.93,1.09.34,1.54c-1.78,1.39-3.46,4.07-2.53,4.07.51,0,1.16-.6,1.44-1.33s1.78-1.65,3.33-2C98,90.33,99,88.75,96,88.75a3.86,3.86,0,0,1-2.88-1,1.06,1.06,0,0,0-.68-.48Zm635.48,13.2v2.64C726.61,102.08,726.62,101,727.9,100.48Zm-548.13.68h0a2.17,2.17,0,0,1,1.81,1.44c.54,1.44-1.29,2-2.48.8s-.7-2.24.66-2.24Zm-8.35,3c1.46.32,1.48.51.12,2.48s-4.13,3-4.13,1.38S170,103.84,171.42,104.16Zm5.14,2.73c1.3,0,1.65.5,1.28,1.92-.54,2.19-1.58,3.1-2.45,2.19C174.07,109.64,174.86,106.89,176.56,106.89Zm-68.76,2.66c-.46-.27-1.87.52-3.13,1.77-2.69,2.66-1.18,3.06,1.87.5,1.16-1,1.72-2,1.26-2.27Zm295.34,2.11c-.85,0-.88.54-.08,2.28.91,2,3.41,2.48,3.41.67C406.47,113.54,404.34,111.66,403.14,111.66ZM0,115.69c.82.19,1.28.55,1.12,1.39A2.19,2.19,0,0,1,0,118.79Zm387.11,8.84c-.58.38-.5,1.27.22,2.46,1.21,2,2.13.85,1.23-1.56C388.26,124.63,387.61,124.21,387.11,124.53Zm-8.8.51c1.67,0,1.83,2,.28,3.62s-2.88,1.41-2.21-.38a9.1,9.1,0,0,0,.54-2.39C376.92,125.41,377.55,125,378.31,125ZM682,135.52h0c.76,0,1.39.18,1.39.4a10.9,10.9,0,0,0,.56,1.91c.66,1.77-.66,2-2.24.36s-1.38-2.68.29-2.68ZM68.56,139.36c1.38,0,2,.6,2,2.13a37.18,37.18,0,0,0,.47,4.3c.47,2.58.2,2.66-1.7.48a11.93,11.93,0,0,1-2.08-4.3C66.71,139.73,66.9,139.36,68.56,139.36ZM0,139.8a1.8,1.8,0,0,1,.47.12c.41.28.15.91-.48,1.54V139.8Zm138.59,3.39c-.83,0-.78.29.19.94.76.51,1,.93.64.94s-.48.47-.14,1c.87,1.45,1.68.3,1-1.46a2.14,2.14,0,0,0-1.72-1.44Zm557.72.94c1,0,1.65.43,1.34,1a2.49,2.49,0,0,1-1.92,1c-.73,0-1.33-.43-1.33-1S695.28,144.13,696.33,144.13Zm25.8,1.91a1,1,0,0,1,0,1.9,1,1,0,0,1,0-1.9Zm3.68,0a1,1,0,0,1,0,1.9,1,1,0,0,1-.83-1.08.94.94,0,0,1,.83-.82Zm-19.71,1.14a.57.57,0,0,1,.32.59c0,.51-.64,1.18-1.45,1.5s-1.32.16-1.1-.55C704.22,147.65,705.48,146.93,706.1,147.18Zm11.15.7c.37,0,.82.37,1,.94s-.74,1-2,1-2.38-.41-2.38-.94.62-1,1.38-1,1.68,0,2-.07Zm-556.88,12a6.89,6.89,0,0,0-3.29,1.25c-2.83,1.73-3.57,3.7-1,2.59,3.18-1.35,4.91-1.67,4.76-.84-.32,1.85.16,2.46,1.55,1.91a8.08,8.08,0,0,1,2.3-.58c1.5,0,.9-2.63-.77-3.38a8.09,8.09,0,0,0-3.57-1Zm285,4.94c-2.82.13-7.12,2.74-7.94,4.82s1.08,6.9,4.09,10.83c1.6,2.08,2.48,3.78,1.94,3.78s-1.45.91-2,2c-.91,1.76-.69,2.36,1.58,4.28,1.44,1.23,3.18,2,3.85,1.77a7.8,7.8,0,0,1,2.08-.44c1.27,0,1-4.08-.36-6.23a12.57,12.57,0,0,1-1.39-4.94,11.31,11.31,0,0,0-3-6.2c-1.82-2.06-2.38-3.29-1.62-3.55a8.15,8.15,0,0,0,2.47-1.74,4.23,4.23,0,0,1,3.49-.95c2.06.41,2.14.32.89-1.57a4.19,4.19,0,0,0-4.1-1.89Zm-29.35.7a3.6,3.6,0,0,0-3,.94c-1.39,1.45-1.31,1.56,1,1.56,1.35,0,2.7-.43,3-1,.5-.85-.09-1.4-1-1.55Zm234.66.78a.57.57,0,0,1,.32.59c0,.52-.64,1.18-1.44,1.5s-1.33.16-1.1-.54C648.85,166.75,650.1,166,650.72,166.27Zm-245.19.52a3.13,3.13,0,0,0-2.75.73,45.54,45.54,0,0,0-3.17,5.66c-1.91,3.89-2,4.62-.81,5.84,1.7,1.76,4.85,1.73,7.15-.08s6.46-1.79,8.22,0c1.57,1.62,7.73,1.91,9.83.46,1.15-.8.85-1.44-1.84-3.82-5.16-4.55-8.05-5.78-10.62-4.57-1.74.82-2.51.72-3.7-.52-.82-.85-1.26-1.94-1-2.4.41-.7-.34-1.19-1.33-1.33Zm58.06.69a3,3,0,0,0-1.62.44c-2.37,1.32-2.61,4.56-.36,5.08,1.95.45,1.63.64,2.81-1.72,1.08-2.13.56-3.72-.83-3.8ZM169,167.69c-.14.23.24,1.15,1.07,3.2a21.06,21.06,0,0,0,1.75,3.77A7.61,7.61,0,0,0,172,172a4.59,4.59,0,0,0-1.75-3.76,7.38,7.38,0,0,0-1-.59c-.16-.06-.28-.06-.33,0Zm4.79.3c-.51,0-.68.44-.36,1a2,2,0,0,0,1.49.93c.52,0,.66-.41.35-.93a2,2,0,0,0-1.48-1Zm472.81,0c1.46,0,.42,2.09-1.81,3.62-1.18.81-2,1-2,.4,0-1.28,2.61-4,3.84-4ZM367,168c-.16,0-.35.45-.71,1.31a2.23,2.23,0,0,0,.56,2.87,18.31,18.31,0,0,1,3,3.69c.9,1.47,2,2.41,2.53,2.1s1.14.09,1.44.89a3.94,3.94,0,0,0,2.22,2c1.68.56,3.2,3.2,2.34,4.08-.26.27-1.15-.11-2-.84-1.38-1.18-1.48-1.1-.9.76.44,1.47.08,2.69-1.26,4.07a6.88,6.88,0,0,0-1.89,2.86c0,1.8-1.85,2-4.64.5-3.34-1.8-3.16-3.78.35-3.84,4.18-.08,5.08-2,2.24-4.74-1.36-1.3-2.88-2.38-3.36-2.38-1,0-6.15-5.88-6.82-7.8-.36-1-1.23-.83-4.06.79-2.62,1.49-4.06,1.81-5.2,1.14-2-1.14-3.41-.29-3.41,2,0,1-1.47,2.88-3.26,4.28-2,1.61-3.21,3.36-3.21,4.75,0,3.24-3.88,7.06-7.52,7.42-1.71.17-3.09.74-3.09,1.26,0,1.72,6.08,1.33,9.21-.59s19.7-4.07,22.4-3c1.4.56,1.54,6.56.16,7.44s1.94,3.24,4.9,3.28a7.34,7.34,0,0,1,4.44,2c3.07,3.18,8.26,4.85,8.26,2.65,0-3.24,5.58-5.92,7.89-3.79a29.34,29.34,0,0,0,6.11,2.45c4,1.25,6,1.41,8.45.72,1.8-.51,3.56-.56,4-.1,1.37,1.42,5-.21,5.91-2.64a22,22,0,0,0,.86-6.13c0-3.55-.16-3.78-2.08-3.12a11.22,11.22,0,0,1-3.92.55c-1.43-.11-2.86-.17-4.3-.17-3.61,0-7.23-1.66-7.23-3.33,0-.8-.46-1.45-1-1.45s-.81-.86-.53-1.92.12-1.91-.29-1.91-.51-.85-.24-1.91c.37-1.47,0-1.9-1.52-1.9-1.12,0-1.76.42-1.44,1s-.08,1.22-.88,1.54c-1.71.67-1.92,2.9-.32,3.45s-1.08,6-2.82,6c-1.49,0-3.84-3.18-3.85-5.22a9,9,0,0,0-1.84-3.87,9.33,9.33,0,0,1-1.82-4.49c0-1.41-1.4-3.09-4.18-5.06-2.28-1.63-4.16-3.57-4.16-4.31s-.54-1.14-1.29-.84-1.47-.2-1.7-1.23c-.19-.82-.3-1.24-.45-1.23Zm-203.08.39a1.92,1.92,0,0,0-.58.16c-1.46.58-2.38,3.38-2.39,7.36,0,1.55.38,2.43.92,2.09s.67-1.64.36-2.92h0a6.44,6.44,0,0,1,.94-4.7c.88-1.39,1.12-2,.75-2Zm194.78,7.41c2-.42,2.18,10.83.16,11.64a1.4,1.4,0,0,1-1.86-.7C356,184.13,357.29,176.12,358.72,175.82Zm90.48,4a.58.58,0,0,0-.28.55,1,1,0,0,0,.92,1c.51,0,.93-.19.93-.42s-.42-.69-.93-1A.67.67,0,0,0,449.2,179.8ZM347,183.74a.85.85,0,0,1,.72.34,1.7,1.7,0,0,1-2,2.32c-.64-.24-1.16-.76-1.16-1.2,0-.8,1.47-1.52,2.43-1.46Zm94,27.36a1.41,1.41,0,0,0-.86.06,1,1,0,0,0-.49,1,7,7,0,0,0,1.84,3.37,7.23,7.23,0,0,1,1.84,3c0,.53.64.72,1.4.42,1-.4,1.38.12,1.38,1.94,0,3.47,3.49,3.34,6.82-.24l2.54-2.76-2.51.5c-3.09.61-8-1.95-9.18-4.83a4.23,4.23,0,0,0-2.77-2.45Zm-129.65,1.76a.94.94,0,0,1,.94.91,2,2,0,0,1-.94,1.48c-.51.32-.91-.07-.91-.89S310.88,212.86,311.39,212.86Zm-5,.36a2.8,2.8,0,0,1,2.19.58c1.1.72,1.16,1.14.24,2.08s-1.16.89-1.16.08c0-.64-.64-.86-1.52-.52s-1.36.16-1.08-.7a2,2,0,0,1,1.34-1.52Zm104.46,2.69a.43.43,0,0,0-.39.09c-.6.63,1.56,5.57,5.88,13.41a10.66,10.66,0,0,1,1.15,4.17,3.66,3.66,0,0,0,.94,2.69,11.2,11.2,0,0,1,2.23,3.78c.71,1.75,2.12,3.47,3.12,3.8a4.05,4.05,0,0,1,2.36,2c1,2.59,1.66,1.42,1-1.7-.81-3.94-4.68-10.9-6.44-11.6-.75-.29-1.35-1.63-1.35-3a7.12,7.12,0,0,0-1.76-4.24,11.27,11.27,0,0,1-2.32-3.57c-.79-2.47-3.29-5.66-4.42-5.88ZM179.3,217.08c1.3-.14,2.88.79,2.88,2.1,0,.73-.2,1.33-.46,1.33s-.47-.43-.47-1-.9-1-2-1c-1.39,0-1.74-.31-1.09-1a1.92,1.92,0,0,1,1.16-.53Zm411.52,3.68c.32,0,.51.32.76,1,.64,1.74-1.2,8.28-2.35,8.28-.41,0-1-.67-1.29-1.5-1-2.71-.61-4.85,1.24-6.59.83-.77,1.3-1.16,1.64-1.19Zm-411.2.15a.89.89,0,0,1,.79.11c1.12.72,1.11,3.31,0,3.31a2,2,0,0,1-1.44-1,1.76,1.76,0,0,1,.66-2.45Zm-8.23,4.48a21.36,21.36,0,0,1,4.67.81c2.85.72,5.19,1.57,5.19,1.9s2.3,1.63,5.09,2.9c4.24,1.93,5.07,2.72,5.07,4.74s-.42,2.44-2.85,2.44a8.36,8.36,0,0,1-3.23-.41c-.87-.9-.28-2,1.06-2,.79,0,1.19-.45.88-1s-2-.94-3.71-.94c-2,0-3.55-.65-4.32-1.8-1.62-2.37-7.14-3.64-8.24-1.88-.66,1-1,1-1.58.05a2,2,0,0,0-2.44-.56c-2.54,1-1.29-1.75,1.55-3.41a5.29,5.29,0,0,1,2.86-.88Zm16.8.85c.76,0,1.37.4,1.37.89,0,1.2-1.43,2.08-2.17,1.31C186.35,227.36,186.76,226.24,188.19,226.24ZM13.28,228.15a1,1,0,1,1-.92.95h0A.93.93,0,0,1,13.28,228.15Zm2.36.95c1.64,0,7.8,4.61,7.8,5.84,0,.35-.64.9-1.42,1.2-.94.38-1.7-.22-2.25-1.73a5.29,5.29,0,0,0-2.74-2.9c-1.68-.56-2.75-2.41-1.39-2.41Zm174.18.88c1.11.11.88,1.42-.31,1.84-.6.21-.93-.14-.73-.77s.68-1.12,1-1.08Zm4.62,2.93c2.3,0,6.2,2.44,6.2,3.88,0,.49-1.16.9-2.58.9a5.9,5.9,0,0,0-3.53,1c-.51.54-1.22.67-1.56.32a6.75,6.75,0,0,1-.64-3.35C192.33,233.45,192.74,232.91,194.44,232.91Zm-13.26,3a3.62,3.62,0,0,1,1.46.24c.76.3,1.39,1,1.39,1.53,0,1.28-4.32,1.28-5.08,0-.54-.91.77-1.73,2.24-1.79Zm22.46.07c1.14.16,2.08.72,2.08,1.24s-.94,1.11-2.08,1.28c-1.43.2-2.06-.2-2.06-1.28S202.22,235.75,203.64,236Zm385.62.09a5.38,5.38,0,0,1,1.12.27c2.49.8,2.16.48,2.88,2.9a3,3,0,0,1-.8,3.22c-2.08,1.79-1.72,2.68,1.36,3.38,2.13.48,2.77,1.14,2.77,2.87,0,2.15-.13,2.18-2.49.91-1.38-.74-2.72-1.07-3-.75s0,.76.66,1a4.87,4.87,0,0,1,3.34,5.58c-.64,2.61.64,3,2.71.9s4,1.06,3.54,6.33c-.16,1.78-1.72,2.54-4.08,2a2.07,2.07,0,0,1-1.61-1.84c0-1.09-.6-1.3-2.32-.86s-2.3.21-2.3-.89a2.37,2.37,0,0,1,1.39-2c1.21-.48,1.21-.78,0-2.57a8.21,8.21,0,0,1-1.39-3.72c0-.94-.35-1.71-.82-1.71-1.25,0-4-9-2.89-9.37.52-.18,1-1.6,1-3.17,0-1.89.12-2.51,1-2.46Zm-2.44,16c1.43,0,.3,3.36-1.8,5.38-2.82,2.69-4.61,3-3.24.59s4.39-6,5-6Zm97,0c.79,0,1.18.42.87,1a2,2,0,0,1-1.44.94.9.9,0,0,1-.86-.95c0-.52.64-.95,1.44-.95Zm.46,3.94a2.26,2.26,0,0,1,1.8,1.84c0,1.22-1.6,1.13-2.35-.12-.33-.56-.4-1.24-.12-1.52A.77.77,0,0,1,684.33,256Zm8.25,1.31a2,2,0,0,1,.93,1.49.94.94,0,0,1-.93.9c-.51,0-.91-.68-.91-1.5S692.07,257,692.58,257.27ZM581,260.58l3.12,2.58,3.14,2.6-2,1.79c-1.92,1.72-1.93,1.89-.43,4.58,1,1.75,1.18,2.8.53,2.8-.38,0-.51.16-.51.34l-1.92,1.83a14.19,14.19,0,0,0-.79,3.08c-.16.26-.32.44-.47.72-2.26,4.21-2.25,4.2-9,3.25-1.31-.19-2.62-.34-3.93-.47a1.88,1.88,0,0,1-1.64-1.82,54.63,54.63,0,0,1-2.17-8h0c.06-.12.13-.2.19-.34.62-1.4,1.57-2.17,2.31-1.88a2.41,2.41,0,0,0,2.44-1,3.93,3.93,0,0,1,2.44-1.48c.68,0,1.68-.87,2.22-1.92s1.54-1.9,2.23-1.9,1.93-1.09,2.77-2.4l1.53-2.4Zm9.12,2.9a1,1,0,0,1,1,.95c0,.52-.17.95-.39.95s-.68-.42-1-1-.12-.94.43-.94Zm-51.47,1.41a16.14,16.14,0,0,1,6.27,3.24,67.42,67.42,0,0,0,8,5.52c1.76,2.64,2,4.45,4.67,4.7,1.43-.56,4,1.47,4,3.17,0,.55.61.76,1.37.45s1.38-.05,1.38.59-.78,1-2.3.56c-2.06-.52-2.29-.29-2.29,2.2,0,3.13,1.92,4.07,9.17,4.42,2.26.11,4.28.68,4.47,1.28a2.24,2.24,0,0,0,2.11,1.1,1.65,1.65,0,0,1,1.78,1.82c0,1.58-.51,1.75-3.92,1.3a20.75,20.75,0,0,1-5.48-1.35,10.19,10.19,0,0,0-4-.82,10.74,10.74,0,0,1-4.44-1.1c-2.92-1.6-11.19-10-12.63-12.75l-1.24-2.38-1.2-2.24s0,0,0-.05-.13-.13-.16-.19l0-.06h0a7.1,7.1,0,0,0-3-2.28c-2.83-1.22-4.5-3.49-4.5-6.11a1,1,0,0,1,.7-1,2.76,2.76,0,0,1,1.31,0Zm65,6.59c.63-.07,1.38.59,2,2l1,2.41a25.55,25.55,0,0,0-1.8,2.1,3.7,3.7,0,0,1-3.08-3,2.7,2.7,0,0,0,.48-1.22c.21-1.48.72-2.26,1.36-2.32Zm-5.84,1.12c1.18-.16,1.57.68.51,2a1.9,1.9,0,0,0-.39.67l-2.58.46c-2.18.46-4.82.42-6.16,2,0,.48.85.64,1.86.36.31-.08.29-.16.55-.25l.92-.11,2.88.4-.18.24a7,7,0,0,0-.92.56c-1.36,1.21-2,2.5-1.56,3.11a5.75,5.75,0,0,1,.69,2.92c-.08,2.44-3,3.08-3.58.78-.28-1.09-.47-.75-.53,1-.08,2-.52,2.63-1.74,2.38a2.29,2.29,0,0,1-1.61-2.22,6.81,6.81,0,0,0-.7-3c-.38-.61-.28-2.25.24-3.65a12.16,12.16,0,0,0,.56-1.93c.24-.69,1.3-3.61,1.34-3.78l-.12,0a4.42,4.42,0,0,1,4.56-1,7.79,7.79,0,0,0,4.56-.36,4,4,0,0,1,1.4-.52ZM408,276.84c-1.38,0-2.62,2.32-1.73,3.24.65.68,3-1.21,3-2.4C409.23,277.21,408.66,276.84,408,276.84Zm205,.59a7.38,7.38,0,0,1,2.73.13h.07v0c.64.14,1.57,1.32,2.06,2.66l.91,2.45,2.58-1.89,2.57-1.91,7.35,2.43c4.25,1.4,8.25,3.41,9.5,4.76,1.73,1.88,2.71,2.2,5,1.68,1.54-.34,3.32-.69,3.94-.79a6.7,6.7,0,0,0,2.74-1.81c1.94-2,3.17-2.08,3.87-.2.89,2.41-3.33,5.32-7.27,5-4.8-.39-5,1.52-.68,5.14,2,1.66,3.41,3.38,3.16,3.81-.88,1.45-6.38-.36-9.44-3.11-3.6-3.22-4.43-3.36-5.74-.83a4.06,4.06,0,0,1-6.44.54c-.74-.93-2-1.22-3.79-.85-3,.62-3.21.22-1.55-2.53.88-1.45.87-2.13,0-3-1.18-1.24-7.3-3.65-9.29-3.68-1.4,0-2.85-1.48-4.63-4.7-1-1.87-1-2.38,0-3.06.54,0,1.43-.17,2.38-.25Zm30.28,2.28c.79,0,1.2.42.89,1a2,2,0,0,1-1.45.94.91.91,0,0,1-.87-.95C641.82,280.14,642.46,279.71,643.25,279.71Zm6.88,1a.93.93,0,0,1,.92.94,1,1,0,0,1-.92,1,.93.93,0,0,1-.93-.94v0a1,1,0,0,1,.93-.95Zm-43.83,1.24c2.6,0,4.14.67,4.14,1.95,0,1-9.76,1.66-10.69.69-1.08-1.12,0-1.83,3.6-2.39a20.84,20.84,0,0,1,2.95-.25ZM659,287.55c.38-.18,1.12.17,2.08,1.08a5.61,5.61,0,0,0,2.67,1.57c.54,0,1.22,1,1.53,2.15.41,1.54.78,1.81,1.33,1s1.37-.9,3.73.32c3.28,1.69,3.41,3.57.28,4.05-1.51.23-2-.2-2-1.71s-.41-1.88-2.18-1.42-2.31.13-2.69-1.4a2.5,2.5,0,0,0-2.33-2,2.73,2.73,0,0,1-2.41-1.58c-.43-1.15-.4-1.85,0-2Zm-57.49,5a1.54,1.54,0,0,1,1.55,1.73c0,.67-1.6,2-3.53,2.89-4.28,2-4.75,2.06-4.75.23,0-.79.34-1.42.75-1.42a7.8,7.8,0,0,0,2.81-2,4.56,4.56,0,0,1,3.18-1.44Zm-13.33,1c8.79,0,8.16,1.84-.73,2.22-5.17.22-6.6,0-6.29-1s2.45-1.25,7-1.26Zm46.43,4.88c.43.24.78,1.3,1.44,3.62.72,2.57,1.77,4.4,2.54,4.4,1.18,0,3.24,5.28,3.26,8.32,0,.62,1.24,1.9,2.76,2.82s2.78,2,2.78,2.33a9.34,9.34,0,0,0,2.28,2.91c1.26,1.24,2.3,2.66,2.32,3.16s1.08,2.06,2.4,3.48c2.08,2.24,2.4,3.44,2.46,9.12s-.38,7.41-3.32,13.38c-1.85,3.76-3.37,7.76-3.37,8.85,0,1.29-.59,2-1.72,2a8.38,8.38,0,0,0-4.07,1.91c-2.62,2.13-2.84,2.2-3.83,1.18-.37-.39-2.53-.76-4.8-.82-4.5-.13-7.46-2.17-7.92-5.48-.21-1.52-1.25-2.29-4.12-3-3.76-.94-5.37-1.88-5.39-3.17,0-1.6-3-4.56-5.53-5.44-3.68-1.29-16.16,1.28-16.16,3.33,0,.4-1.89,1-4.21,1.34a21.35,21.35,0,0,0-6.8,2.15c-2.23,1.36-2.91,1.4-5.2.26-2.46-1.22-2.64-1.73-2.74-7a24.47,24.47,0,0,0-1.95-9.65,17.81,17.81,0,0,1-1.61-9.33c.3-6.08.82-7.4,2.56-6.72a2.38,2.38,0,0,0,2.39-1,4,4,0,0,1,2.58-1.48,24.54,24.54,0,0,0,5-1.09c2.79-.87,3.89-1.91,5.1-4.75.85-2,1.87-3.4,2.27-3.14s1.86-.85,3.23-2.44c2.46-2.86,6.13-3.84,7.27-1.95.93,1.56,1.76,1.11,3.42-1.91.86-1.57,2.24-2.86,3.06-2.86s1.2-.45.82-1.1.12-.88,2-.38a33.6,33.6,0,0,0,5.59.84c3.92.21,4.38.93,2.75,4.18-1.38,2.76-1.36,2.79,2.75,5.35a24.07,24.07,0,0,0,4.89,2.58c.92,0,1.92-4.75,1.92-9.12a8,8,0,0,1,1.56-4.77,4.64,4.64,0,0,1,.88-.78.45.45,0,0,1,.47,0Zm-206,1.84c.52-.33.93.07.93.88,0,1.68-.56,1.94-1.36.62a1.16,1.16,0,0,1,.43-1.5Zm11.56,1.47a3.12,3.12,0,0,1,2.25,1.8,11.67,11.67,0,0,1,.12,8.85c-.46,1.2-1.8,5.79-3,10.17-1.72,6.43-2.56,8.15-4.3,8.83-3.2,1.27-4.66,1.06-5.58-.81-1.8-3.64-2-7-.65-9.73.77-1.54,1.14-3.48.84-4.3-1.1-3,.53-6.22,3.83-7.64,1.76-.76,3.2-2.06,3.2-2.88s.42-1.48.92-1.48.93-.64.93-1.42c0-1,.63-1.47,1.4-1.39Zm-8.64.14a2,2,0,0,1,1,.58c1.39,1.44.62,2.25-1.1,1.15-.73-.46-1-1.17-.65-1.56a.81.81,0,0,1,.8-.17Zm246,17c1.09,0,6.78,4.85,6.78,5.78,0,1.65-2.3.94-4.86-1.52-2.38-2.28-3.28-4.26-1.92-4.26Zm-224,1.91a1,1,0,0,1,.94,1,1,1,0,0,1-.94,1,.94.94,0,0,1-.91-1h0A.94.94,0,0,1,453.53,320.76Zm169,32.46a1,1,0,0,0-1,.94v0c0,.52.19.95.41.95s.67-.43,1-1S623,353.22,622.49,353.22Zm73.69.33c1.76.64,6.5,5.64,6.54,7.17,0,.9.71,1.12,2.26.72,1.24-.32,2.48-.24,2.74.2.83,1.4-.53,5-1.9,5-.74,0-1.12.36-.84.83.71,1.17-3.13,6-4.42,5.57-1-.33-3.52,4.35-3.09,5.68.11.32-.76.95-1.91,1.39a4.65,4.65,0,0,0-2.62,3.56c-.38,2-1.6,3.34-4.24,4.8-4.53,2.5-4.76,2.5-4.16.12.32-1.24,0-1.91-.8-1.91-3,0-.68-4.8,3.85-8a18.73,18.73,0,0,0,5-5.49c1.43-2.74,2.1-3.16,4.55-2.91,3.16.33,3.68-.44,1.39-2.17-1.29-1-1.33-1.43-.26-3.2s1-2.59-1-6.34c-1.24-2.34-2-4.58-1.58-5,.1-.11.3-.11.54,0Zm-53.9,16.34c4,0,4.16.15,4.16,3s-2.35,6.11-4.52,6.11c-.62,0-1.71-1.48-2.45-3.31-2.11-5.22-1.82-5.82,2.81-5.8Z"/></g></g></svg>