<svg xmlns="http://www.w3.org/2000/svg" xmlns:xlink="http://www.w3.org/1999/xlink" viewBox="0 0 565.33 566.64"><defs><style>.cls-1{fill:url(#linear-gradient);}.cls-2{fill:url(#linear-gradient-2);}.cls-3{fill:url(#linear-gradient-3);}.cls-4{fill:url(#linear-gradient-4);}</style><linearGradient id="linear-gradient" x1="159.02" y1="309.62" x2="214.17" y2="309.62" gradientUnits="userSpaceOnUse"><stop offset="0" stop-color="#7ac943"/><stop offset="1" stop-color="#0071bc"/></linearGradient><linearGradient id="linear-gradient-2" x1="351.28" y1="312.11" x2="406.42" y2="312.11" xlink:href="#linear-gradient"/><linearGradient id="linear-gradient-3" x1="178.11" y1="428.76" x2="385.92" y2="428.76" xlink:href="#linear-gradient"/><linearGradient id="linear-gradient-4" x1="0" y1="283.32" x2="565.33" y2="283.32" xlink:href="#linear-gradient"/></defs><g id="Layer_2" data-name="Layer 2"><g id="Layer_1-2" data-name="Layer 1"><rect class="cls-1" x="159.02" y="282.05" width="55.15" height="55.15" rx="27.57"/><rect class="cls-2" x="351.28" y="284.54" width="55.15" height="55.15" rx="27.57"/><path class="cls-3" d="M212,390.43A88.25,88.25,0,0,0,238.81,416,82.12,82.12,0,0,0,283,428.73c24.76-.24,41.79-12.08,47.74-16.34a88.59,88.59,0,0,0,20.94-21.19,21.5,21.5,0,0,1,29.87,30.38A132.16,132.16,0,0,1,354,447.37c-8.09,5.62-32.66,22.23-68.43,23.49-12.68.44-45.07-.39-75.57-22.47a118.73,118.73,0,0,1-30.13-31.92,22,22,0,0,1,4.34-23.74C191.24,385.61,203,384.47,212,390.43Z"/><path class="cls-4" d="M560.76,174.18c-7.19-9.13-18.59-8.25-19.4-8.17H454.55C450.05,74.74,375.32,2.18,286,.05c-92.3-2.2-172.1,71.56-176.81,166l-85-.87a24.62,24.62,0,0,0-17.49,7.12C-1.4,180.55,0,191.44.21,192.69,32.09,390.85,55.44,535,57.53,548.41c.31,2,1.18,7.64,5.55,12.06,4.93,5,12,6,17.24,6.13h404.1A22,22,0,0,0,500.51,561a21.71,21.71,0,0,0,6.64-13.27Q536,370.13,564.85,192.56C565.13,191.33,567,182.12,560.76,174.18ZM288.08,43.84c64.38,2.64,118.59,55,123.32,121.78H154C159.18,94.82,219.9,41,288.08,43.84Zm180,479.48H96.21q-25.47-157.4-50.93-314.8H520.17Q494.13,365.92,468.08,523.32Z"/></g></g></svg>