<svg xmlns="http://www.w3.org/2000/svg" xmlns:xlink="http://www.w3.org/1999/xlink" viewBox="0 0 785.16 670.69"><defs><style>.cls-1{fill:url(#linear-gradient);}</style><linearGradient id="linear-gradient" y1="335.34" x2="785.16" y2="335.34" gradientUnits="userSpaceOnUse"><stop offset="0" stop-color="#7ac943"/><stop offset="1" stop-color="#0071bc"/></linearGradient></defs><g id="Layer_2" data-name="Layer 2"><g id="Layer_1-2" data-name="Layer 1"><path class="cls-1" d="M769,139c-19.54-23-46.9-24-51.11-24H573.31c-1-12-5.12-42.65-28.6-70.56C509.5,2.59,458.92.25,450.5,0H167.07C125.12,0,98.5,19.92,78.85,45.34c-18.94,24.5-22.43,52.5-23,68.87A65.76,65.76,0,0,0,0,177.46V603.55c-.07,4.21,0,29.85,20.66,49.36C43.84,674.76,73.41,670.56,76.91,670h641c4.75-.14,30.32-1.36,49.5-22.45A69.78,69.78,0,0,0,785,606.24v-418C785.35,183.39,786.5,159.64,769,139ZM135.35,66.3c13.29-9.84,27.8-9.65,32.55-9.39H445.18c5.39-.1,27.72.1,47.1,17a70.09,70.09,0,0,1,22.22,38.3H115.43C115.28,110.24,113.64,82.36,135.35,66.3ZM728.71,601.19a12.28,12.28,0,0,1-3.32,8.17,12.05,12.05,0,0,1-6.38,3.45H67.94a11.54,11.54,0,0,1-10.53-11.87V181.77a10.08,10.08,0,0,1,10.91-10.28H718a9.35,9.35,0,0,1,7.15,2.55,9.51,9.51,0,0,1,2.56,7.91v65.37l-299.49,1a45.1,45.1,0,0,0-29.56,10.79,44.53,44.53,0,0,0-13.72,22.4c-.26,111.74-.06,192.86,0,207.19a28.47,28.47,0,0,0,4,14.94c6.9,11.19,19.68,12.82,21.45,13H728.71Zm0-142.47h-287V306h287Z"/></g></g></svg>